<svg aria-hidden="true" style="position: absolute; width: 0; height: 0; overflow: hidden;"
    version="1.1" xmlns="http://www.w3.org/2000/svg" xmlns:xlink="http://www.w3.org/1999/xlink">
    <defs>
        <symbol id="icon-headdress" viewBox="0 0 41 32">
            <path
                d="M40.415 8.265l-19.321-8.168c-0.149-0.064-0.309-0.097-0.471-0.097s-0.322 0.033-0.471 0.097l-19.416 8.139c-0.219 0.096-0.405 0.254-0.535 0.454s-0.201 0.433-0.202 0.672c-0.001 0.239 0.068 0.473 0.197 0.674s0.314 0.36 0.532 0.457c1.148 0.492 7.865 3.31 8.807 3.72l10.616 4.477c0.303 0.121 0.64 0.118 0.941-0.007 3.411-1.439 12.215-5.161 15.491-6.551-0.008 0.91 0.006 8.584 0 9.697-1.46 0.368-2.053 2.858-1.235 4.205l-1.081 4.852c-0.034 0.146-0.022 0.298 0.034 0.437s0.155 0.256 0.282 0.335c0.126 0.082 0.274 0.124 0.424 0.118s0.295-0.057 0.414-0.148c0.523-0.386 1.152-0.602 1.801-0.618 0.691-0.010 1.366 0.21 1.919 0.625 0.124 0.087 0.273 0.135 0.425 0.135s0.301-0.046 0.426-0.132c0.125-0.087 0.221-0.209 0.274-0.352s0.061-0.298 0.023-0.445l-1.375-4.83c0.708-1.213 0.323-3.391-0.86-3.999 0.007-1.122-0.005-9.615 0-10.499l2.36-1c0.217-0.097 0.402-0.255 0.531-0.454s0.198-0.432 0.198-0.67c0-0.238-0.069-0.471-0.198-0.67s-0.314-0.357-0.531-0.454z"></path>
            <path
                d="M40.415 8.265l-19.321-8.168c-0.149-0.064-0.309-0.097-0.471-0.097s-0.322 0.033-0.471 0.097l-19.416 8.139c-0.219 0.096-0.405 0.254-0.535 0.454s-0.201 0.433-0.202 0.672c-0.001 0.239 0.068 0.473 0.197 0.674s0.314 0.36 0.532 0.457c1.148 0.492 7.865 3.31 8.807 3.72l10.616 4.477c0.303 0.121 0.64 0.118 0.941-0.007 3.411-1.439 12.215-5.161 15.491-6.551-0.008 0.91 0.006 8.584 0 9.697-1.46 0.368-2.053 2.858-1.235 4.205l-1.081 4.852c-0.034 0.146-0.022 0.298 0.034 0.437s0.155 0.256 0.282 0.335c0.126 0.082 0.274 0.124 0.424 0.118s0.295-0.057 0.414-0.148c0.523-0.386 1.152-0.602 1.801-0.618 0.691-0.010 1.366 0.21 1.919 0.625 0.124 0.087 0.273 0.135 0.425 0.135s0.301-0.046 0.426-0.132c0.125-0.087 0.221-0.209 0.274-0.352s0.061-0.298 0.023-0.445l-1.375-4.83c0.708-1.213 0.323-3.391-0.86-3.999 0.007-1.122-0.005-9.615 0-10.499l2.36-1c0.217-0.097 0.402-0.255 0.531-0.454s0.198-0.432 0.198-0.67c0-0.238-0.069-0.471-0.198-0.67s-0.314-0.357-0.531-0.454z"></path>
            <path
                d="M19.58 20.042c-0.885-0.374-10.968-4.635-11.513-4.86v7.161c0.005 0.384 0.103 0.762 0.286 1.1s0.446 0.627 0.765 0.841c3.232 2.197 7.026 3.424 10.932 3.536 4.281 0.085 8.486-1.141 12.050-3.514 0.327-0.215 0.597-0.507 0.785-0.851s0.29-0.728 0.295-1.119v-7.161c-0.51 0.221-10.648 4.501-11.513 4.867-0.669 0.276-1.419 0.276-2.088 0z"></path>
            <path
                d="M19.58 20.042c-0.885-0.374-10.968-4.635-11.513-4.86v7.161c0.005 0.384 0.103 0.762 0.286 1.1s0.446 0.627 0.765 0.841c3.232 2.197 7.026 3.424 10.932 3.536 4.281 0.085 8.486-1.141 12.050-3.514 0.327-0.215 0.597-0.507 0.785-0.851s0.29-0.728 0.295-1.119v-7.161c-0.51 0.221-10.648 4.501-11.513 4.867-0.669 0.276-1.419 0.276-2.088 0z"></path>
        </symbol>
    </defs>
</svg>